<svg version="1.1" id="Layer_1" xmlns="http://www.w3.org/2000/svg" xmlns:xlink="http://www.w3.org/1999/xlink" x="0px" y="0px"
	 width="100%" viewBox="0 0 2400 2400" enable-background="new 0 0 2400 2400" xml:space="preserve">
<path fill="#000000" opacity="1.000000" stroke="none" 
	d="
M1092.000000,2402.000000 
	C728.000000,2402.000000 365.000000,2402.000000 2.000000,2402.000000 
	C2.000000,1602.000000 2.000000,802.000000 2.000000,2.000000 
	C802.000000,2.000000 1602.000000,2.000000 2402.000000,2.000000 
	C2402.000000,802.000000 2402.000000,1602.000000 2402.000000,2402.000000 
	C1965.666626,2402.000000 1529.333374,2402.000000 1092.000000,2402.000000 
M1999.000122,755.713440 
	C1901.360107,755.829590 1803.720215,755.945374 1706.080200,756.083374 
	C1705.817261,756.083740 1705.527832,756.378113 1705.299438,756.588013 
	C1705.056641,756.811218 1704.871826,757.097473 1705.421387,756.420837 
	C1705.421387,1052.141479 1705.421387,1346.926147 1705.421387,1642.061768 
	C1772.372925,1642.061768 1838.185303,1642.061768 1904.848389,1642.061768 
	C1904.848389,1528.337646 1904.848389,1415.217041 1904.848389,1300.714600 
	C1992.168579,1300.714600 2078.645020,1300.714600 2164.979980,1300.714600 
	C2164.979980,1227.801880 2164.979980,1156.278687 2164.979980,1083.679688 
	C2076.963135,1083.679688 1989.529175,1083.679688 1901.983643,1083.679688 
	C1901.983643,1047.373047 1901.983643,1012.147522 1901.983643,976.145081 
	C1991.086792,976.145081 2079.604492,976.145081 2168.192871,976.145081 
	C2168.192871,902.446045 2168.192871,829.529968 2168.192871,755.713501 
	C2112.167725,755.713501 2056.583984,755.713501 1999.000122,755.713440 
M690.170288,1527.137085 
	C717.555481,1502.489136 741.895447,1475.132690 761.831421,1444.134521 
	C821.308472,1351.653931 844.410706,1250.308716 834.450928,1141.165283 
	C828.899414,1080.328125 811.214722,1023.007568 781.589355,969.695923 
	C723.716431,865.552124 639.172546,794.359070 522.917480,763.092590 
	C489.425507,754.085022 454.898102,753.481506 420.737610,753.007385 
	C356.433258,752.114929 292.094666,753.682556 227.770599,754.260864 
	C225.217438,754.283813 222.667374,754.649658 219.400635,754.913513 
	C219.400635,1047.384644 219.400635,1339.232788 219.400635,1631.477539 
	C222.040253,1631.626587 224.311539,1631.864258 226.583130,1631.867432 
	C301.577454,1631.972656 376.571777,1632.062256 451.566132,1632.118652 
	C454.892303,1632.121094 458.260529,1632.067261 461.538940,1631.573486 
	C547.208984,1618.665894 623.902527,1585.986450 690.170288,1527.137085 
M1180.911865,996.999451 
	C1180.911865,1207.419434 1180.911865,1417.839478 1180.911865,1628.228394 
	C1202.714600,1630.234375 1364.319580,1629.357422 1370.883423,1627.390747 
	C1370.883423,1332.403931 1370.883423,1037.581543 1370.883423,742.604126 
	C1307.204346,742.604126 1244.444946,742.604126 1180.911987,742.604126 
	C1180.911987,827.153442 1180.911987,911.076416 1180.911865,996.999451 
z"/>
<path fill="#F6F6F6" opacity="1.000000" stroke="none" 
	d="
M2000.000244,755.713501 
	C2056.583984,755.713501 2112.167725,755.713501 2168.192871,755.713501 
	C2168.192871,829.529968 2168.192871,902.446045 2168.192871,976.145081 
	C2079.604492,976.145081 1991.086792,976.145081 1901.983643,976.145081 
	C1901.983643,1012.147522 1901.983643,1047.373047 1901.983643,1083.679688 
	C1989.529175,1083.679688 2076.963135,1083.679688 2164.979980,1083.679688 
	C2164.979980,1156.278687 2164.979980,1227.801880 2164.979980,1300.714600 
	C2078.645020,1300.714600 1992.168579,1300.714600 1904.848389,1300.714600 
	C1904.848389,1415.217041 1904.848389,1528.337646 1904.848389,1642.061768 
	C1838.185303,1642.061768 1772.372925,1642.061768 1705.421387,1642.061768 
	C1705.421387,1346.926147 1705.421387,1052.141479 1705.421387,756.420837 
	C1704.871826,757.097473 1705.056641,756.811218 1705.299438,756.588013 
	C1705.527832,756.378113 1705.817261,756.083740 1706.080200,756.083374 
	C1803.720215,755.945374 1901.360107,755.829590 2000.000244,755.713501 
M1945.000244,789.480042 
	C1875.802612,789.559875 1806.605103,789.639648 1738.056152,789.718689 
	C1738.056152,1070.483398 1738.056152,1349.958862 1738.056152,1629.286621 
	C1791.454224,1629.286621 1843.924805,1629.286621 1896.577881,1629.286621 
	C1896.577881,1517.066162 1896.577881,1405.515747 1896.577881,1293.156494 
	C1983.807495,1293.156494 2070.601562,1293.156494 2157.291016,1293.156494 
	C2157.291016,1234.531372 2157.291016,1176.719727 2157.291016,1118.210571 
	C2068.732422,1118.210571 1980.916016,1118.210571 1893.147949,1118.210571 
	C1893.147949,1066.714966 1893.147949,1015.927917 1893.147949,964.441528 
	C1923.616821,964.441528 1953.226685,964.441589 1982.836670,964.441589 
	C2012.834229,964.441589 2042.832031,964.520935 2072.829346,964.419006 
	C2102.298584,964.318909 2131.782227,964.870300 2161.186035,964.087463 
	C2161.186035,905.293091 2161.186035,847.749878 2161.186035,789.480042 
	C2089.475830,789.480042 2018.238159,789.480042 1945.000244,789.480042 
z"/>
<path fill="#F7F7F7" opacity="1.000000" stroke="none" 
	d="
M689.643127,1527.608643 
	C623.902527,1585.986450 547.208984,1618.665894 461.538940,1631.573486 
	C458.260529,1632.067261 454.892303,1632.121094 451.566132,1632.118652 
	C376.571777,1632.062256 301.577454,1631.972656 226.583130,1631.867432 
	C224.311539,1631.864258 222.040253,1631.626587 219.400635,1631.477539 
	C219.400635,1339.232788 219.400635,1047.384644 219.400635,754.913513 
	C222.667374,754.649658 225.217438,754.283813 227.770599,754.260864 
	C292.094666,753.682556 356.433258,752.114929 420.737610,753.007385 
	C454.898102,753.481506 489.425507,754.085022 522.917480,763.092590 
	C639.172546,794.359070 723.716431,865.552124 781.589355,969.695923 
	C811.214722,1023.007568 828.899414,1080.328125 834.450928,1141.165283 
	C844.410706,1250.308716 821.308472,1351.653931 761.831421,1444.134521 
	C741.895447,1475.132690 717.555481,1502.489136 689.643127,1527.608643 
M224.460861,1466.999756 
	C224.460861,1518.512207 224.460861,1570.024658 224.460861,1621.679932 
	C228.152298,1621.863647 230.464386,1622.079956 232.776413,1622.079224 
	C309.414795,1622.055908 386.053497,1622.101685 462.691162,1621.840942 
	C470.946533,1621.812866 479.417694,1620.866943 487.412048,1618.852051 
	C540.973694,1605.352783 592.328369,1586.181396 638.292480,1554.989990 
	C693.035583,1517.841187 739.098938,1472.658447 769.382019,1412.526611 
	C820.501648,1311.020752 833.591492,1205.690308 804.098145,1095.554443 
	C789.616150,1041.474609 763.595581,992.965576 731.515381,947.532410 
	C697.063904,898.741028 655.103516,857.808899 602.916809,828.157959 
	C550.673645,798.474731 493.716553,786.536804 434.226257,786.245178 
	C366.922699,785.915222 299.613861,786.646301 232.307510,786.955078 
	C229.740433,786.966858 227.175217,787.386230 224.460861,787.628906 
	C224.460861,1013.864868 224.460861,1239.432251 224.460861,1466.999756 
z"/>
<path fill="#F5F5F5" opacity="1.000000" stroke="none" 
	d="
M1180.911865,995.999390 
	C1180.911987,911.076416 1180.911987,827.153442 1180.911987,742.604126 
	C1244.444946,742.604126 1307.204346,742.604126 1370.883423,742.604126 
	C1370.883423,1037.581543 1370.883423,1332.403931 1370.883423,1627.390747 
	C1364.319580,1629.357422 1202.714600,1630.234375 1180.911865,1628.228394 
	C1180.911865,1417.839478 1180.911865,1207.419434 1180.911865,995.999390 
M1354.480835,958.999390 
	C1354.421753,928.680603 1354.339478,898.361755 1354.310181,868.042969 
	C1354.280640,837.579346 1354.303711,807.115662 1354.303711,776.785400 
	C1301.666260,776.785400 1250.201172,776.785400 1198.045898,776.785400 
	C1198.199707,1055.065552 1197.817383,1332.718018 1198.313110,1609.850952 
	C1251.807861,1609.850952 1303.902222,1609.850952 1356.424438,1609.850952 
	C1355.777588,1392.768799 1355.134277,1176.884033 1354.480835,958.999390 
z"/>
<path fill="#050505" opacity="1.000000" stroke="none" 
	d="
M1946.000366,789.480042 
	C2018.238159,789.480042 2089.475830,789.480042 2161.186035,789.480042 
	C2161.186035,847.749878 2161.186035,905.293091 2161.186035,964.087463 
	C2131.782227,964.870300 2102.298584,964.318909 2072.829346,964.419006 
	C2042.832031,964.520935 2012.834229,964.441589 1982.836670,964.441589 
	C1953.226685,964.441589 1923.616821,964.441528 1893.147949,964.441528 
	C1893.147949,1015.927917 1893.147949,1066.714966 1893.147949,1118.210571 
	C1980.916016,1118.210571 2068.732422,1118.210571 2157.291016,1118.210571 
	C2157.291016,1176.719727 2157.291016,1234.531372 2157.291016,1293.156494 
	C2070.601562,1293.156494 1983.807495,1293.156494 1896.577881,1293.156494 
	C1896.577881,1405.515747 1896.577881,1517.066162 1896.577881,1629.286621 
	C1843.924805,1629.286621 1791.454224,1629.286621 1738.056152,1629.286621 
	C1738.056152,1349.958862 1738.056152,1070.483398 1738.056152,789.718689 
	C1806.605103,789.639648 1875.802612,789.559875 1946.000366,789.480042 
M1977.000366,1128.682373 
	C1938.490479,1128.682373 1899.980591,1128.682373 1861.493652,1128.682373 
	C1861.493652,1060.321167 1861.493652,993.442078 1861.493652,925.347778 
	C1950.319946,925.347778 2038.734375,925.347778 2127.182861,925.347778 
	C2127.182861,884.255615 2127.182861,844.382324 2127.182861,804.204895 
	C2000.945557,804.204895 1875.187012,804.204895 1749.617920,804.204895 
	C1749.617920,1066.673340 1749.617920,1328.510742 1749.617920,1590.340576 
	C1788.005371,1590.340576 1825.442017,1590.340576 1863.813477,1590.340576 
	C1863.813477,1479.488647 1863.813477,1369.611694 1863.813477,1258.983154 
	C1951.533081,1258.983154 2038.312012,1258.983154 2125.235107,1258.983154 
	C2125.235107,1215.382202 2125.235107,1172.540161 2125.235107,1128.682373 
	C2076.156494,1128.682373 2027.578491,1128.682373 1977.000366,1128.682373 
z"/>
<path fill="#070707" opacity="1.000000" stroke="none" 
	d="
M224.460861,1465.999756 
	C224.460861,1239.432251 224.460861,1013.864868 224.460861,787.628906 
	C227.175217,787.386230 229.740433,786.966858 232.307510,786.955078 
	C299.613861,786.646301 366.922699,785.915222 434.226257,786.245178 
	C493.716553,786.536804 550.673645,798.474731 602.916809,828.157959 
	C655.103516,857.808899 697.063904,898.741028 731.515381,947.532410 
	C763.595581,992.965576 789.616150,1041.474609 804.098145,1095.554443 
	C833.591492,1205.690308 820.501648,1311.020752 769.382019,1412.526611 
	C739.098938,1472.658447 693.035583,1517.841187 638.292480,1554.989990 
	C592.328369,1586.181396 540.973694,1605.352783 487.412048,1618.852051 
	C479.417694,1620.866943 470.946533,1621.812866 462.691162,1621.840942 
	C386.053497,1622.101685 309.414795,1622.055908 232.776413,1622.079224 
	C230.464386,1622.079956 228.152298,1621.863647 224.460861,1621.679932 
	C224.460861,1570.024658 224.460861,1518.512207 224.460861,1465.999756 
M240.544754,1416.999756 
	C240.544754,1472.235474 240.544754,1527.471191 240.544754,1583.756714 
	C245.066437,1583.756714 248.632645,1583.756714 252.198868,1583.756714 
	C310.187378,1583.756714 368.177734,1583.477051 426.163696,1583.863281 
	C460.175964,1584.089844 492.916290,1577.492432 525.154602,1567.591797 
	C581.518250,1550.281860 631.846497,1522.172607 673.403931,1480.190552 
	C770.326782,1382.277222 809.347290,1264.433838 790.280884,1128.103394 
	C778.506958,1043.916016 742.009888,970.744934 685.050964,907.976196 
	C652.580872,872.194092 612.116943,846.818054 569.088806,825.967102 
	C530.769653,807.398071 489.236664,800.400085 446.923889,800.021729 
	C380.943268,799.431763 314.952118,800.013367 248.965469,800.126892 
	C246.416443,800.131287 243.867889,800.429016 240.544769,800.638916 
	C240.544769,1005.886536 240.544769,1210.442993 240.544754,1416.999756 
z"/>
<path fill="#090909" opacity="1.000000" stroke="none" 
	d="
M1354.485962,959.999390 
	C1355.134277,1176.884033 1355.777588,1392.768799 1356.424438,1609.850952 
	C1303.902222,1609.850952 1251.807861,1609.850952 1198.313110,1609.850952 
	C1197.817383,1332.718018 1198.199707,1055.065552 1198.045898,776.785400 
	C1250.201172,776.785400 1301.666260,776.785400 1354.303711,776.785400 
	C1354.303711,807.115662 1354.280640,837.579346 1354.310181,868.042969 
	C1354.339478,898.361755 1354.421753,928.680603 1354.485962,959.999390 
M1210.089600,1075.000000 
	C1210.089600,1242.815674 1210.089600,1410.631226 1210.089600,1578.399414 
	C1247.161621,1578.399414 1283.331543,1578.399414 1319.439453,1578.399414 
	C1322.142334,1555.317871 1321.249023,799.184082 1318.543335,788.928528 
	C1282.722290,788.928528 1246.881714,788.928528 1210.095337,788.928528 
	C1210.095337,883.951538 1210.095337,978.475769 1210.089600,1075.000000 
z"/>
<path fill="#F4F4F4" opacity="1.000000" stroke="none" 
	d="
M1978.000488,1128.682373 
	C2027.578491,1128.682373 2076.156494,1128.682373 2125.235107,1128.682373 
	C2125.235107,1172.540161 2125.235107,1215.382202 2125.235107,1258.983154 
	C2038.312012,1258.983154 1951.533081,1258.983154 1863.813477,1258.983154 
	C1863.813477,1369.611694 1863.813477,1479.488647 1863.813477,1590.340576 
	C1825.442017,1590.340576 1788.005371,1590.340576 1749.617920,1590.340576 
	C1749.617920,1328.510742 1749.617920,1066.673340 1749.617920,804.204895 
	C1875.187012,804.204895 2000.945557,804.204895 2127.182861,804.204895 
	C2127.182861,844.382324 2127.182861,884.255615 2127.182861,925.347778 
	C2038.734375,925.347778 1950.319946,925.347778 1861.493652,925.347778 
	C1861.493652,993.442078 1861.493652,1060.321167 1861.493652,1128.682373 
	C1899.980591,1128.682373 1938.490479,1128.682373 1978.000488,1128.682373 
M2114.264404,834.606140 
	C2112.599854,834.544678 2110.935547,834.429688 2109.270996,834.429565 
	C2000.941162,834.420898 1892.611328,834.421570 1784.281494,834.421326 
	C1781.688110,834.421326 1779.094727,834.421204 1776.271118,834.421204 
	C1776.271118,1082.681519 1776.271118,1330.088013 1776.271118,1577.549438 
	C1802.666992,1577.549438 1828.145264,1577.549438 1853.852295,1577.549438 
	C1853.852295,1468.130005 1853.852295,1359.289917 1853.852295,1249.619995 
	C1941.374756,1249.152588 2028.473999,1248.687500 2115.573242,1248.222534 
	C2115.573242,1220.033813 2115.573242,1192.874878 2115.573242,1165.217407 
	C2085.683838,1165.217407 2056.384033,1165.217407 2027.084351,1165.217407 
	C1998.085327,1165.217407 1969.085693,1165.323975 1940.087280,1165.187500 
	C1910.955933,1165.050415 1881.803345,1165.787964 1852.922241,1164.747925 
	C1852.922241,1081.647827 1852.922241,999.821167 1852.922241,917.268677 
	C1940.744995,917.268677 2027.971680,917.268677 2114.851562,917.268677 
	C2115.486328,915.948669 2116.022461,915.354614 2116.020752,914.762024 
	C2115.951172,888.444824 2115.834229,862.127686 2114.264404,834.606140 
z"/>
<path fill="#F6F6F6" opacity="1.000000" stroke="none" 
	d="
M240.544769,1415.999634 
	C240.544769,1210.442993 240.544769,1005.886536 240.544769,800.638916 
	C243.867889,800.429016 246.416443,800.131287 248.965469,800.126892 
	C314.952118,800.013367 380.943268,799.431763 446.923889,800.021729 
	C489.236664,800.400085 530.769653,807.398071 569.088806,825.967102 
	C612.116943,846.818054 652.580872,872.194092 685.050964,907.976196 
	C742.009888,970.744934 778.506958,1043.916016 790.280884,1128.103394 
	C809.347290,1264.433838 770.326782,1382.277222 673.403931,1480.190552 
	C631.846497,1522.172607 581.518250,1550.281860 525.154602,1567.591797 
	C492.916290,1577.492432 460.175964,1584.089844 426.163696,1583.863281 
	C368.177734,1583.477051 310.187378,1583.756714 252.198868,1583.756714 
	C248.632645,1583.756714 245.066437,1583.756714 240.544754,1583.756714 
	C240.544754,1527.471191 240.544754,1472.235474 240.544769,1415.999634 
M769.782227,1288.565063 
	C774.432617,1264.971191 776.982300,1241.126099 777.247375,1217.106201 
	C778.012939,1147.727295 762.434814,1082.405640 727.844727,1021.953918 
	C703.528381,979.457092 674.589417,940.612732 637.702148,908.036743 
	C596.397644,871.559875 548.992188,847.154297 495.015747,835.790649 
	C489.205353,834.567444 483.151825,833.980286 477.210571,833.976624 
	C410.880005,833.935913 344.549316,834.068237 278.218658,834.153015 
	C274.980408,834.157166 271.742188,834.153564 268.078613,834.153564 
	C268.078613,1078.947632 268.078613,1322.773438 268.078613,1567.135010 
	C270.723602,1567.305298 272.972595,1567.575928 275.221619,1567.576660 
	C333.886108,1567.596802 392.551147,1567.730347 451.214874,1567.519287 
	C476.306152,1567.428955 501.035675,1563.994751 525.147949,1556.887695 
	C603.969604,1533.655151 665.599915,1486.607666 713.042725,1420.294678 
	C741.127258,1381.039795 759.490112,1337.411743 769.782227,1288.565063 
z"/>
<path fill="#FBFBFB" opacity="1.000000" stroke="none" 
	d="
M1210.092529,1074.000000 
	C1210.095337,978.475769 1210.095337,883.951538 1210.095337,788.928528 
	C1246.881714,788.928528 1282.722290,788.928528 1318.543335,788.928528 
	C1321.249023,799.184082 1322.142334,1555.317871 1319.439453,1578.399414 
	C1283.331543,1578.399414 1247.161621,1578.399414 1210.089600,1578.399414 
	C1210.089600,1410.631226 1210.089600,1242.815674 1210.092529,1074.000000 
M1311.898315,1453.000000 
	C1311.898315,1242.852539 1311.898315,1032.705078 1311.898315,822.272461 
	C1286.972534,822.272461 1262.901245,822.272461 1238.241089,822.272461 
	C1238.800049,1071.088013 1237.108276,1319.156860 1238.539429,1566.817627 
	C1263.525513,1566.817627 1287.391846,1566.817627 1311.898315,1566.817627 
	C1311.898315,1528.888672 1311.898315,1491.944336 1311.898315,1453.000000 
z"/>
<path fill="#050505" opacity="1.000000" stroke="none" 
	d="
M2114.993652,835.208374 
	C2115.834229,862.127686 2115.951172,888.444824 2116.020752,914.762024 
	C2116.022461,915.354614 2115.486328,915.948669 2114.851562,917.268677 
	C2027.971680,917.268677 1940.744995,917.268677 1852.922241,917.268677 
	C1852.922241,999.821167 1852.922241,1081.647827 1852.922241,1164.747925 
	C1881.803345,1165.787964 1910.955933,1165.050415 1940.087280,1165.187500 
	C1969.085693,1165.323975 1998.085327,1165.217407 2027.084351,1165.217407 
	C2056.384033,1165.217407 2085.683838,1165.217407 2115.573242,1165.217407 
	C2115.573242,1192.874878 2115.573242,1220.033813 2115.573242,1248.222534 
	C2028.473999,1248.687500 1941.374756,1249.152588 1853.852295,1249.619995 
	C1853.852295,1359.289917 1853.852295,1468.130005 1853.852295,1577.549438 
	C1828.145264,1577.549438 1802.666992,1577.549438 1776.271118,1577.549438 
	C1776.271118,1330.088013 1776.271118,1082.681519 1776.271118,834.421204 
	C1779.094727,834.421204 1781.688110,834.421326 1784.281494,834.421326 
	C1892.611328,834.421570 2000.941162,834.420898 2109.270996,834.429565 
	C2110.935547,834.429688 2112.599854,834.544678 2114.993652,835.208374 
M1789.673828,1402.999878 
	C1789.673828,1449.218140 1789.673828,1495.436401 1789.673828,1542.013916 
	C1801.073364,1542.013916 1811.609985,1542.013916 1823.180664,1542.013916 
	C1823.180664,1529.404907 1823.180664,1517.146240 1823.180664,1504.887573 
	C1823.180664,1492.887817 1823.180664,1480.887939 1823.180664,1468.888184 
	C1823.180664,1456.555054 1823.180664,1444.222046 1823.180664,1431.888916 
	C1823.180664,1419.889160 1823.180664,1407.889282 1823.180664,1395.889526 
	C1823.180664,1383.556396 1823.180664,1371.223389 1823.180664,1358.890259 
	C1823.180664,1346.890503 1823.180664,1334.890747 1823.180664,1322.890991 
	C1823.180664,1310.557861 1823.180664,1298.224731 1823.180664,1285.891602 
	C1823.180664,1273.891846 1823.083374,1261.891113 1823.208008,1249.892578 
	C1823.334106,1237.737427 1822.633667,1225.539429 1823.800049,1212.195312 
	C1910.244385,1212.195312 1995.742798,1212.195312 2081.245117,1212.195312 
	C2081.245117,1200.146240 2081.245117,1189.385498 2081.245117,1177.805298 
	C1993.674683,1177.805298 1906.835815,1177.805298 1820.385742,1177.805298 
	C1820.385742,1078.188965 1820.385742,979.416626 1820.385742,879.940613 
	C1908.100342,879.940613 1994.902954,879.940613 2081.470947,879.940613 
	C2081.470947,869.110291 2081.470947,859.005127 2081.470947,848.868286 
	C1984.187378,848.868286 1887.652954,848.868286 1789.674683,848.868286 
	C1789.674683,1033.221680 1789.674683,1217.110718 1789.673828,1402.999878 
z"/>
<path fill="#070707" opacity="1.000000" stroke="none" 
	d="
M769.637939,1289.398438 
	C759.490112,1337.411743 741.127258,1381.039795 713.042725,1420.294678 
	C665.599915,1486.607666 603.969604,1533.655151 525.147949,1556.887695 
	C501.035675,1563.994751 476.306152,1567.428955 451.214874,1567.519287 
	C392.551147,1567.730347 333.886108,1567.596802 275.221619,1567.576660 
	C272.972595,1567.575928 270.723602,1567.305298 268.078613,1567.135010 
	C268.078613,1322.773438 268.078613,1078.947632 268.078613,834.153564 
	C271.742188,834.153564 274.980408,834.157166 278.218658,834.153015 
	C344.549316,834.068237 410.880005,833.935913 477.210571,833.976624 
	C483.151825,833.980286 489.205353,834.567444 495.015747,835.790649 
	C548.992188,847.154297 596.397644,871.559875 637.702148,908.036743 
	C674.589417,940.612732 703.528381,979.457092 727.844727,1021.953918 
	C762.434814,1082.405640 778.012939,1147.727295 777.247375,1217.106201 
	C776.982300,1241.126099 774.432617,1264.971191 769.637939,1289.398438 
M446.944458,846.306702 
	C392.052460,846.306702 337.160461,846.306702 282.416199,846.306702 
	C282.416199,1077.213745 282.416199,1307.187866 282.416199,1537.742676 
	C285.524567,1537.742676 287.479919,1537.745850 289.435272,1537.742188 
	C342.742798,1537.643066 396.050690,1537.621216 449.357361,1537.352417 
	C456.646698,1537.315796 463.998810,1536.467163 471.205048,1535.283447 
	C533.657227,1525.025269 588.308716,1498.205444 635.271240,1456.107056 
	C738.028320,1363.993042 778.698120,1206.043091 733.133179,1074.417847 
	C704.648438,992.132812 654.129456,926.910034 577.904480,883.398438 
	C538.137024,860.697937 495.467529,846.307495 446.944458,846.306702 
z"/>
<path fill="#060606" opacity="1.000000" stroke="none" 
	d="
M1311.898315,1454.000000 
	C1311.898315,1491.944336 1311.898315,1528.888672 1311.898315,1566.817627 
	C1287.391846,1566.817627 1263.525513,1566.817627 1238.539429,1566.817627 
	C1237.108276,1319.156860 1238.800049,1071.088013 1238.241089,822.272461 
	C1262.901245,822.272461 1286.972534,822.272461 1311.898315,822.272461 
	C1311.898315,1032.705078 1311.898315,1242.852539 1311.898315,1454.000000 
M1248.436890,867.005066 
	C1248.436890,1084.475830 1248.436890,1301.946533 1248.436890,1519.552368 
	C1258.995972,1519.552368 1268.844727,1519.552368 1278.981934,1519.552368 
	C1278.981934,1290.970947 1278.981934,1062.869141 1278.981934,834.484070 
	C1268.541138,834.484070 1258.802856,834.484070 1248.436890,834.484070 
	C1248.436890,845.112793 1248.436890,855.060913 1248.436890,867.005066 
z"/>
<path fill="#FAFAFA" opacity="1.000000" stroke="none" 
	d="
M1789.674316,1401.999756 
	C1789.674683,1217.110718 1789.674683,1033.221680 1789.674683,848.868286 
	C1887.652954,848.868286 1984.187378,848.868286 2081.470947,848.868286 
	C2081.470947,859.005127 2081.470947,869.110291 2081.470947,879.940613 
	C1994.902954,879.940613 1908.100342,879.940613 1820.385742,879.940613 
	C1820.385742,979.416626 1820.385742,1078.188965 1820.385742,1177.805298 
	C1906.835815,1177.805298 1993.674683,1177.805298 2081.245117,1177.805298 
	C2081.245117,1189.385498 2081.245117,1200.146240 2081.245117,1212.195312 
	C1995.742798,1212.195312 1910.244385,1212.195312 1823.800049,1212.195312 
	C1822.633667,1225.539429 1823.334106,1237.737427 1823.208008,1249.892578 
	C1823.083374,1261.891113 1823.180664,1273.891846 1823.180664,1285.891602 
	C1823.180664,1298.224731 1823.180664,1310.557861 1823.180664,1322.890991 
	C1823.180664,1334.890747 1823.180664,1346.890503 1823.180664,1358.890259 
	C1823.180664,1371.223389 1823.180664,1383.556396 1823.180664,1395.889526 
	C1823.180664,1407.889282 1823.180664,1419.889160 1823.180664,1431.888916 
	C1823.180664,1444.222046 1823.180664,1456.555054 1823.180664,1468.888184 
	C1823.180664,1480.887939 1823.180664,1492.887817 1823.180664,1504.887573 
	C1823.180664,1517.146240 1823.180664,1529.404907 1823.180664,1542.013916 
	C1811.609985,1542.013916 1801.073364,1542.013916 1789.673828,1542.013916 
	C1789.673828,1495.436401 1789.673828,1449.218140 1789.674316,1401.999756 
z"/>
<path fill="#F9F9F9" opacity="1.000000" stroke="none" 
	d="
M447.932526,846.306702 
	C495.467529,846.307495 538.137024,860.697937 577.904480,883.398438 
	C654.129456,926.910034 704.648438,992.132812 733.133179,1074.417847 
	C778.698120,1206.043091 738.028320,1363.993042 635.271240,1456.107056 
	C588.308716,1498.205444 533.657227,1525.025269 471.205048,1535.283447 
	C463.998810,1536.467163 456.646698,1537.315796 449.357361,1537.352417 
	C396.050690,1537.621216 342.742798,1537.643066 289.435272,1537.742188 
	C287.479919,1537.745850 285.524567,1537.742676 282.416199,1537.742676 
	C282.416199,1307.187866 282.416199,1077.213745 282.416199,846.306702 
	C337.160461,846.306702 392.052460,846.306702 447.932526,846.306702 
M665.367615,1372.304199 
	C695.959778,1326.228027 714.574585,1275.725830 719.371582,1220.628906 
	C724.194580,1165.232666 715.341797,1111.684082 693.150269,1060.657349 
	C656.218750,975.738037 595.087219,916.935669 505.755829,889.194519 
	C487.952118,883.665771 469.844177,878.703125 451.085205,878.616089 
	C406.779724,878.410645 362.471161,878.860840 318.163971,879.078918 
	C315.626495,879.091431 313.090485,879.400391 310.158783,879.598083 
	C310.625610,889.922852 311.433289,899.501404 311.436493,909.080200 
	C311.501251,1102.642212 311.473663,1296.204346 311.464661,1489.766357 
	C311.464478,1493.621826 311.464630,1497.477417 311.464630,1501.847778 
	C314.461914,1501.847778 316.076233,1501.848022 317.690521,1501.847778 
	C363.665680,1501.843750 409.644714,1502.165405 455.613281,1501.612427 
	C467.476746,1501.469727 479.616058,1499.762695 491.102600,1496.761230 
	C564.395203,1477.609741 622.071228,1436.178833 665.367615,1372.304199 
z"/>
<path fill="#F7F7F7" opacity="1.000000" stroke="none" 
	d="
M1248.436890,866.007080 
	C1248.436890,855.060913 1248.436890,845.112793 1248.436890,834.484070 
	C1258.802856,834.484070 1268.541138,834.484070 1278.981934,834.484070 
	C1278.981934,1062.869141 1278.981934,1290.970947 1278.981934,1519.552368 
	C1268.844727,1519.552368 1258.995972,1519.552368 1248.436890,1519.552368 
	C1248.436890,1301.946533 1248.436890,1084.475830 1248.436890,866.007080 
z"/>
<path fill="#050505" opacity="1.000000" stroke="none" 
	d="
M664.937012,1372.886719 
	C622.071228,1436.178833 564.395203,1477.609741 491.102600,1496.761230 
	C479.616058,1499.762695 467.476746,1501.469727 455.613281,1501.612427 
	C409.644714,1502.165405 363.665680,1501.843750 317.690521,1501.847778 
	C316.076233,1501.848022 314.461914,1501.847778 311.464630,1501.847778 
	C311.464630,1497.477417 311.464478,1493.621826 311.464661,1489.766357 
	C311.473663,1296.204346 311.501251,1102.642212 311.436493,909.080200 
	C311.433289,899.501404 310.625610,889.922852 310.158783,879.598083 
	C313.090485,879.400391 315.626495,879.091431 318.163971,879.078918 
	C362.471161,878.860840 406.779724,878.410645 451.085205,878.616089 
	C469.844177,878.703125 487.952118,883.665771 505.755829,889.194519 
	C595.087219,916.935669 656.218750,975.738037 693.150269,1060.657349 
	C715.341797,1111.684082 724.194580,1165.232666 719.371582,1220.628906 
	C714.574585,1275.725830 695.959778,1326.228027 664.937012,1372.886719 
M693.783142,1097.291504 
	C692.530151,1093.502808 691.281372,1089.712769 690.023621,1085.925659 
	C653.542297,976.081970 552.048523,914.459045 455.041656,917.960876 
	C422.436523,919.137817 389.753113,918.136230 357.105530,918.166077 
	C354.206116,918.168701 351.307007,918.436157 348.560120,918.573059 
	C348.560120,1108.188110 348.560120,1297.178711 348.560120,1487.250610 
	C358.371887,1487.250610 367.320374,1487.312500 376.267700,1487.239014 
	C402.242218,1487.025513 428.444885,1488.870117 454.144867,1486.088989 
	C515.192566,1479.483154 568.618652,1454.616699 613.410217,1412.328247 
	C698.016296,1332.450073 726.675232,1210.014160 693.783142,1097.291504 
z"/>
<path fill="#F8F8F8" opacity="1.000000" stroke="none" 
	d="
M693.949219,1098.083496 
	C726.675232,1210.014160 698.016296,1332.450073 613.410217,1412.328247 
	C568.618652,1454.616699 515.192566,1479.483154 454.144867,1486.088989 
	C428.444885,1488.870117 402.242218,1487.025513 376.267700,1487.239014 
	C367.320374,1487.312500 358.371887,1487.250610 348.560120,1487.250610 
	C348.560120,1297.178711 348.560120,1108.188110 348.560120,918.573059 
	C351.307007,918.436157 354.206116,918.168701 357.105530,918.166077 
	C389.753113,918.136230 422.436523,919.137817 455.041656,917.960876 
	C552.048523,914.459045 653.542297,976.081970 690.023621,1085.925659 
	C691.281372,1089.712769 692.530151,1093.502808 693.949219,1098.083496 
M354.175537,1412.999756 
	C354.175537,1427.214355 354.175537,1441.428955 354.175537,1456.301025 
	C358.551727,1456.301025 361.827393,1456.301025 365.103058,1456.301025 
	C385.757874,1456.301025 406.412903,1456.357300 427.067413,1456.276123 
	C436.722626,1456.238037 446.478058,1456.769409 456.014587,1455.612549 
	C509.929962,1449.072998 557.801453,1428.463501 595.809265,1389.305542 
	C662.302734,1320.799805 689.102600,1238.307373 674.006470,1144.039673 
	C660.813904,1061.658936 616.711487,998.233459 546.898499,952.919861 
	C518.343201,934.385437 486.938751,924.901550 452.427734,925.774353 
	C423.129974,926.515259 393.798553,925.911804 364.482117,925.949097 
	C361.305817,925.953125 358.129883,926.261536 354.176941,926.469727 
	C354.176941,1088.605835 354.176941,1249.802979 354.175537,1412.999756 
z"/>
<path fill="#070707" opacity="1.000000" stroke="none" 
	d="
M354.176239,1411.999878 
	C354.176941,1249.802979 354.176941,1088.605835 354.176941,926.469727 
	C358.129883,926.261536 361.305817,925.953125 364.482117,925.949097 
	C393.798553,925.911804 423.129974,926.515259 452.427734,925.774353 
	C486.938751,924.901550 518.343201,934.385437 546.898499,952.919861 
	C616.711487,998.233459 660.813904,1061.658936 674.006470,1144.039673 
	C689.102600,1238.307373 662.302734,1320.799805 595.809265,1389.305542 
	C557.801453,1428.463501 509.929962,1449.072998 456.014587,1455.612549 
	C446.478058,1456.769409 436.722626,1456.238037 427.067413,1456.276123 
	C406.412903,1456.357300 385.757874,1456.301025 365.103058,1456.301025 
	C361.827393,1456.301025 358.551727,1456.301025 354.175537,1456.301025 
	C354.175537,1441.428955 354.175537,1427.214355 354.176239,1411.999878 
M664.020386,1212.749756 
	C666.705322,1183.309570 664.976135,1154.144165 657.979736,1125.404541 
	C649.003479,1088.532471 633.593872,1054.994995 605.999084,1028.041504 
	C588.496948,1010.945984 569.024475,996.464844 547.439636,984.918701 
	C521.441956,971.012207 493.931000,963.258911 464.157166,963.880737 
	C441.834229,964.346924 419.493683,963.955566 397.161072,963.995056 
	C394.609711,963.999512 392.058838,964.319702 389.532471,964.491760 
	C389.532471,1123.297729 389.532471,1281.444702 389.532471,1439.859619 
	C409.222229,1441.304321 428.047455,1441.993042 447.035339,1440.445801 
	C494.670593,1436.564087 537.022339,1419.848633 573.632446,1389.216064 
	C628.056335,1343.678589 656.426270,1284.484619 664.020386,1212.749756 
z"/>
<path fill="#F6F6F6" opacity="1.000000" stroke="none" 
	d="
M663.963013,1213.667236 
	C656.426270,1284.484619 628.056335,1343.678589 573.632446,1389.216064 
	C537.022339,1419.848633 494.670593,1436.564087 447.035339,1440.445801 
	C428.047455,1441.993042 409.222229,1441.304321 389.532471,1439.859619 
	C389.532471,1281.444702 389.532471,1123.297729 389.532471,964.491760 
	C392.058838,964.319702 394.609711,963.999512 397.161072,963.995056 
	C419.493683,963.955566 441.834229,964.346924 464.157166,963.880737 
	C493.931000,963.258911 521.441956,971.012207 547.439636,984.918701 
	C569.024475,996.464844 588.496948,1010.945984 605.999084,1028.041504 
	C633.593872,1054.994995 649.003479,1088.532471 657.979736,1125.404541 
	C664.976135,1154.144165 666.705322,1183.309570 663.963013,1213.667236 
M411.225311,972.556580 
	C406.978058,972.556580 402.730835,972.556580 398.321686,972.556580 
	C398.321686,1118.598267 398.321686,1263.636719 398.321686,1409.883301 
	C411.565338,1409.883301 424.169373,1410.428955 436.711761,1409.780884 
	C474.052582,1407.851318 508.469696,1397.014893 539.566833,1375.738037 
	C618.204102,1321.933228 646.178528,1224.988647 630.722046,1147.606934 
	C615.248474,1070.139648 570.884827,1014.745544 498.625488,982.077209 
	C484.465118,975.675354 469.780548,972.182800 454.150299,972.499023 
	C440.498932,972.775269 426.837524,972.556580 411.225311,972.556580 
z"/>
<path fill="#050505" opacity="1.000000" stroke="none" 
	d="
M412.202942,972.556580 
	C426.837524,972.556580 440.498932,972.775269 454.150299,972.499023 
	C469.780548,972.182800 484.465118,975.675354 498.625488,982.077209 
	C570.884827,1014.745544 615.248474,1070.139648 630.722046,1147.606934 
	C646.178528,1224.988647 618.204102,1321.933228 539.566833,1375.738037 
	C508.469696,1397.014893 474.052582,1407.851318 436.711761,1409.780884 
	C424.169373,1410.428955 411.565338,1409.883301 398.321686,1409.883301 
	C398.321686,1263.636719 398.321686,1118.598267 398.321686,972.556580 
	C402.730835,972.556580 406.978058,972.556580 412.202942,972.556580 
M539.416138,1033.383301 
	C506.299744,1014.842896 470.821716,1007.350830 432.698730,1010.194092 
	C432.698730,1138.030273 432.698730,1265.415771 432.698730,1393.864014 
	C437.122772,1393.864014 441.027679,1393.951050 444.926971,1393.840698 
	C449.246124,1393.718384 453.648560,1393.895020 457.862946,1393.118164 
	C505.533691,1384.330444 545.577576,1362.020996 575.522583,1323.671997 
	C613.205261,1275.413818 627.272949,1220.040161 620.471985,1159.553345 
	C614.338928,1105.006470 589.228271,1061.959229 539.416138,1033.383301 
z"/>
<path fill="#FEFEFE" opacity="1.000000" stroke="none" 
	d="
M540.073181,1033.718628 
	C589.228271,1061.959229 614.338928,1105.006470 620.471985,1159.553345 
	C627.272949,1220.040161 613.205261,1275.413818 575.522583,1323.671997 
	C545.577576,1362.020996 505.533691,1384.330444 457.862946,1393.118164 
	C453.648560,1393.895020 449.246124,1393.718384 444.926971,1393.840698 
	C441.027679,1393.951050 437.122772,1393.864014 432.698730,1393.864014 
	C432.698730,1265.415771 432.698730,1138.030273 432.698730,1010.194092 
	C470.821716,1007.350830 506.299744,1014.842896 540.073181,1033.718628 
z"/>
</svg>